<svg width="343" height="215" viewBox="0 0 343 215" fill="none" xmlns="http://www.w3.org/2000/svg">
<rect x="61.5" y="31.5" width="281" height="183" rx="11.5" fill="white"/>
<rect x="61.5" y="31.5" width="281" height="183" rx="11.5" stroke="#ECECEC"/>
<rect width="282" height="38" transform="translate(61 55)" fill="#ECECEC"/>
<path d="M297.658 118.698H299.702C299.661 119.368 299.477 119.963 299.148 120.482C298.825 121.002 298.371 121.408 297.788 121.699C297.209 121.991 296.512 122.137 295.696 122.137C295.058 122.137 294.486 122.027 293.98 121.809C293.475 121.585 293.042 121.266 292.682 120.852C292.326 120.437 292.055 119.936 291.868 119.348C291.681 118.76 291.588 118.101 291.588 117.372V116.682C291.588 115.952 291.684 115.294 291.875 114.706C292.071 114.114 292.349 113.61 292.709 113.195C293.074 112.781 293.509 112.462 294.015 112.238C294.521 112.015 295.086 111.903 295.71 111.903C296.539 111.903 297.239 112.054 297.809 112.354C298.383 112.655 298.827 113.07 299.142 113.599C299.461 114.127 299.652 114.729 299.716 115.403H297.665C297.642 115.002 297.562 114.663 297.426 114.385C297.289 114.102 297.082 113.89 296.804 113.749C296.53 113.603 296.166 113.53 295.71 113.53C295.368 113.53 295.07 113.594 294.814 113.722C294.559 113.849 294.345 114.043 294.172 114.303C293.999 114.562 293.869 114.891 293.782 115.287C293.7 115.679 293.659 116.139 293.659 116.668V117.372C293.659 117.887 293.698 118.34 293.775 118.732C293.853 119.12 293.971 119.448 294.131 119.717C294.295 119.981 294.505 120.182 294.76 120.318C295.02 120.451 295.332 120.517 295.696 120.517C296.125 120.517 296.478 120.448 296.756 120.312C297.034 120.175 297.246 119.972 297.392 119.703C297.542 119.434 297.631 119.099 297.658 118.698ZM304.638 119.922L306.982 112.047H309.266L305.8 122H304.296L304.638 119.922ZM302.478 112.047L304.815 119.922L305.171 122H303.653L300.208 112.047H302.478ZM313.784 119.922L316.129 112.047H318.412L314.946 122H313.442L313.784 119.922ZM311.624 112.047L313.962 119.922L314.317 122H312.8L309.354 112.047H311.624Z" fill="#8493A8"/>
<path d="M290.648 134.625L293.062 138.773L295.477 134.625H297.734L294.297 140.258L297.82 146H295.539L293.062 141.773L290.586 146H288.297L291.828 140.258L288.383 134.625H290.648ZM300.758 134.625L303.172 138.773L305.586 134.625H307.844L304.406 140.258L307.93 146H305.648L303.172 141.773L300.695 146H298.406L301.938 140.258L298.492 134.625H300.758ZM310.867 134.625L313.281 138.773L315.695 134.625H317.953L314.516 140.258L318.039 146H315.758L313.281 141.773L310.805 146H308.516L312.047 140.258L308.602 134.625H310.867Z" fill="#485363"/>
<rect x="0.5" y="0.5" width="281" height="183" rx="11.5" fill="white"/>
<rect x="0.5" y="0.5" width="281" height="183" rx="11.5" stroke="#ECECEC"/>
<g clip-path="url(#clip0_1_1779)">
<rect x="226" y="24" width="32" height="24" rx="2" fill="#FFE07D"/>
<path d="M258 33.4619V29.8982H248.04V24H244.646V48H248.04V42.102H258V38.5381H248.04V33.4619H258Z" fill="#FFC250"/>
<path d="M235.96 29.8982H226V33.4619H235.96V38.5381H226V42.102H235.96V48H239.354V24H235.96V29.8982Z" fill="#FFC250"/>
</g>
<path d="M34.5469 74.6406V77.1016C34.5469 78.1693 34.4329 79.0905 34.2051 79.8652C33.9772 80.6335 33.6484 81.265 33.2188 81.7598C32.7956 82.248 32.291 82.6094 31.7051 82.8438C31.1191 83.0781 30.4681 83.1953 29.752 83.1953C29.179 83.1953 28.6452 83.1237 28.1504 82.9805C27.6556 82.8307 27.2096 82.5996 26.8125 82.2871C26.4219 81.9746 26.0833 81.5807 25.7969 81.1055C25.5169 80.6237 25.3021 80.0508 25.1523 79.3867C25.0026 78.7227 24.9277 77.9609 24.9277 77.1016V74.6406C24.9277 73.5729 25.0417 72.6582 25.2695 71.8965C25.5039 71.1283 25.8327 70.5 26.2559 70.0117C26.6855 69.5234 27.1934 69.1654 27.7793 68.9375C28.3652 68.7031 29.0163 68.5859 29.7324 68.5859C30.3053 68.5859 30.8359 68.6608 31.3242 68.8105C31.819 68.9538 32.265 69.1784 32.6621 69.4844C33.0592 69.7904 33.3978 70.1842 33.6777 70.666C33.9577 71.1413 34.1725 71.7109 34.3223 72.375C34.472 73.0326 34.5469 73.7878 34.5469 74.6406ZM31.7246 77.4727V74.2598C31.7246 73.7454 31.6953 73.2962 31.6367 72.9121C31.5846 72.528 31.5033 72.2025 31.3926 71.9355C31.2819 71.6621 31.1452 71.4408 30.9824 71.2715C30.8197 71.1022 30.6341 70.9785 30.4258 70.9004C30.2174 70.8223 29.9863 70.7832 29.7324 70.7832C29.4134 70.7832 29.1302 70.8451 28.8828 70.9688C28.6419 71.0924 28.4368 71.291 28.2676 71.5645C28.0983 71.8314 27.9681 72.1895 27.877 72.6387C27.7923 73.0814 27.75 73.6217 27.75 74.2598V77.4727C27.75 77.987 27.776 78.4395 27.8281 78.8301C27.8867 79.2207 27.9714 79.556 28.082 79.8359C28.1992 80.1094 28.3359 80.334 28.4922 80.5098C28.6549 80.679 28.8405 80.8027 29.0488 80.8809C29.2637 80.959 29.498 80.998 29.752 80.998C30.0645 80.998 30.3411 80.9362 30.582 80.8125C30.8294 80.6823 31.0378 80.4805 31.207 80.207C31.3828 79.9271 31.513 79.5625 31.5977 79.1133C31.6823 78.6641 31.7246 78.1172 31.7246 77.4727ZM46.0312 74.6406V77.1016C46.0312 78.1693 45.9173 79.0905 45.6895 79.8652C45.4616 80.6335 45.1328 81.265 44.7031 81.7598C44.2799 82.248 43.7754 82.6094 43.1895 82.8438C42.6035 83.0781 41.9525 83.1953 41.2363 83.1953C40.6634 83.1953 40.1296 83.1237 39.6348 82.9805C39.14 82.8307 38.694 82.5996 38.2969 82.2871C37.9062 81.9746 37.5677 81.5807 37.2812 81.1055C37.0013 80.6237 36.7865 80.0508 36.6367 79.3867C36.487 78.7227 36.4121 77.9609 36.4121 77.1016V74.6406C36.4121 73.5729 36.526 72.6582 36.7539 71.8965C36.9883 71.1283 37.3171 70.5 37.7402 70.0117C38.1699 69.5234 38.6777 69.1654 39.2637 68.9375C39.8496 68.7031 40.5007 68.5859 41.2168 68.5859C41.7897 68.5859 42.3203 68.6608 42.8086 68.8105C43.3034 68.9538 43.7493 69.1784 44.1465 69.4844C44.5436 69.7904 44.8822 70.1842 45.1621 70.666C45.4421 71.1413 45.6569 71.7109 45.8066 72.375C45.9564 73.0326 46.0312 73.7878 46.0312 74.6406ZM43.209 77.4727V74.2598C43.209 73.7454 43.1797 73.2962 43.1211 72.9121C43.069 72.528 42.9876 72.2025 42.877 71.9355C42.7663 71.6621 42.6296 71.4408 42.4668 71.2715C42.304 71.1022 42.1185 70.9785 41.9102 70.9004C41.7018 70.8223 41.4707 70.7832 41.2168 70.7832C40.8978 70.7832 40.6146 70.8451 40.3672 70.9688C40.1263 71.0924 39.9212 71.291 39.752 71.5645C39.5827 71.8314 39.4525 72.1895 39.3613 72.6387C39.2767 73.0814 39.2344 73.6217 39.2344 74.2598V77.4727C39.2344 77.987 39.2604 78.4395 39.3125 78.8301C39.3711 79.2207 39.4557 79.556 39.5664 79.8359C39.6836 80.1094 39.8203 80.334 39.9766 80.5098C40.1393 80.679 40.3249 80.8027 40.5332 80.8809C40.748 80.959 40.9824 80.998 41.2363 80.998C41.5488 80.998 41.8255 80.9362 42.0664 80.8125C42.3138 80.6823 42.5221 80.4805 42.6914 80.207C42.8672 79.9271 42.9974 79.5625 43.082 79.1133C43.1667 78.6641 43.209 78.1172 43.209 77.4727ZM57.5156 74.6406V77.1016C57.5156 78.1693 57.4017 79.0905 57.1738 79.8652C56.946 80.6335 56.6172 81.265 56.1875 81.7598C55.7643 82.248 55.2598 82.6094 54.6738 82.8438C54.0879 83.0781 53.4368 83.1953 52.7207 83.1953C52.1478 83.1953 51.6139 83.1237 51.1191 82.9805C50.6243 82.8307 50.1784 82.5996 49.7812 82.2871C49.3906 81.9746 49.0521 81.5807 48.7656 81.1055C48.4857 80.6237 48.2708 80.0508 48.1211 79.3867C47.9714 78.7227 47.8965 77.9609 47.8965 77.1016V74.6406C47.8965 73.5729 48.0104 72.6582 48.2383 71.8965C48.4727 71.1283 48.8014 70.5 49.2246 70.0117C49.6543 69.5234 50.1621 69.1654 50.748 68.9375C51.334 68.7031 51.985 68.5859 52.7012 68.5859C53.2741 68.5859 53.8047 68.6608 54.293 68.8105C54.7878 68.9538 55.2337 69.1784 55.6309 69.4844C56.028 69.7904 56.3665 70.1842 56.6465 70.666C56.9264 71.1413 57.1413 71.7109 57.291 72.375C57.4408 73.0326 57.5156 73.7878 57.5156 74.6406ZM54.6934 77.4727V74.2598C54.6934 73.7454 54.6641 73.2962 54.6055 72.9121C54.5534 72.528 54.472 72.2025 54.3613 71.9355C54.2507 71.6621 54.1139 71.4408 53.9512 71.2715C53.7884 71.1022 53.6029 70.9785 53.3945 70.9004C53.1862 70.8223 52.9551 70.7832 52.7012 70.7832C52.3822 70.7832 52.099 70.8451 51.8516 70.9688C51.6107 71.0924 51.4056 71.291 51.2363 71.5645C51.0671 71.8314 50.9368 72.1895 50.8457 72.6387C50.7611 73.0814 50.7188 73.6217 50.7188 74.2598V77.4727C50.7188 77.987 50.7448 78.4395 50.7969 78.8301C50.8555 79.2207 50.9401 79.556 51.0508 79.8359C51.168 80.1094 51.3047 80.334 51.4609 80.5098C51.6237 80.679 51.8092 80.8027 52.0176 80.8809C52.2324 80.959 52.4668 80.998 52.7207 80.998C53.0332 80.998 53.3099 80.9362 53.5508 80.8125C53.7982 80.6823 54.0065 80.4805 54.1758 80.207C54.3516 79.9271 54.4818 79.5625 54.5664 79.1133C54.651 78.6641 54.6934 78.1172 54.6934 77.4727ZM69 74.6406V77.1016C69 78.1693 68.8861 79.0905 68.6582 79.8652C68.4303 80.6335 68.1016 81.265 67.6719 81.7598C67.2487 82.248 66.7441 82.6094 66.1582 82.8438C65.5723 83.0781 64.9212 83.1953 64.2051 83.1953C63.6322 83.1953 63.0983 83.1237 62.6035 82.9805C62.1087 82.8307 61.6628 82.5996 61.2656 82.2871C60.875 81.9746 60.5365 81.5807 60.25 81.1055C59.9701 80.6237 59.7552 80.0508 59.6055 79.3867C59.4557 78.7227 59.3809 77.9609 59.3809 77.1016V74.6406C59.3809 73.5729 59.4948 72.6582 59.7227 71.8965C59.957 71.1283 60.2858 70.5 60.709 70.0117C61.1387 69.5234 61.6465 69.1654 62.2324 68.9375C62.8184 68.7031 63.4694 68.5859 64.1855 68.5859C64.7585 68.5859 65.2891 68.6608 65.7773 68.8105C66.2721 68.9538 66.7181 69.1784 67.1152 69.4844C67.5124 69.7904 67.8509 70.1842 68.1309 70.666C68.4108 71.1413 68.6257 71.7109 68.7754 72.375C68.9251 73.0326 69 73.7878 69 74.6406ZM66.1777 77.4727V74.2598C66.1777 73.7454 66.1484 73.2962 66.0898 72.9121C66.0378 72.528 65.9564 72.2025 65.8457 71.9355C65.735 71.6621 65.5983 71.4408 65.4355 71.2715C65.2728 71.1022 65.0872 70.9785 64.8789 70.9004C64.6706 70.8223 64.4395 70.7832 64.1855 70.7832C63.8665 70.7832 63.5833 70.8451 63.3359 70.9688C63.0951 71.0924 62.89 71.291 62.7207 71.5645C62.5514 71.8314 62.4212 72.1895 62.3301 72.6387C62.2454 73.0814 62.2031 73.6217 62.2031 74.2598V77.4727C62.2031 77.987 62.2292 78.4395 62.2812 78.8301C62.3398 79.2207 62.4245 79.556 62.5352 79.8359C62.6523 80.1094 62.7891 80.334 62.9453 80.5098C63.1081 80.679 63.2936 80.8027 63.502 80.8809C63.7168 80.959 63.9512 80.998 64.2051 80.998C64.5176 80.998 64.7943 80.9362 65.0352 80.8125C65.2826 80.6823 65.4909 80.4805 65.6602 80.207C65.8359 79.9271 65.9661 79.5625 66.0508 79.1133C66.1354 78.6641 66.1777 78.1172 66.1777 77.4727ZM85.4648 74.6406V77.1016C85.4648 78.1693 85.3509 79.0905 85.123 79.8652C84.8952 80.6335 84.5664 81.265 84.1367 81.7598C83.7135 82.248 83.209 82.6094 82.623 82.8438C82.0371 83.0781 81.3861 83.1953 80.6699 83.1953C80.097 83.1953 79.5632 83.1237 79.0684 82.9805C78.5736 82.8307 78.1276 82.5996 77.7305 82.2871C77.3398 81.9746 77.0013 81.5807 76.7148 81.1055C76.4349 80.6237 76.2201 80.0508 76.0703 79.3867C75.9206 78.7227 75.8457 77.9609 75.8457 77.1016V74.6406C75.8457 73.5729 75.9596 72.6582 76.1875 71.8965C76.4219 71.1283 76.7507 70.5 77.1738 70.0117C77.6035 69.5234 78.1113 69.1654 78.6973 68.9375C79.2832 68.7031 79.9342 68.5859 80.6504 68.5859C81.2233 68.5859 81.7539 68.6608 82.2422 68.8105C82.737 68.9538 83.1829 69.1784 83.5801 69.4844C83.9772 69.7904 84.3158 70.1842 84.5957 70.666C84.8757 71.1413 85.0905 71.7109 85.2402 72.375C85.39 73.0326 85.4648 73.7878 85.4648 74.6406ZM82.6426 77.4727V74.2598C82.6426 73.7454 82.6133 73.2962 82.5547 72.9121C82.5026 72.528 82.4212 72.2025 82.3105 71.9355C82.1999 71.6621 82.0632 71.4408 81.9004 71.2715C81.7376 71.1022 81.5521 70.9785 81.3438 70.9004C81.1354 70.8223 80.9043 70.7832 80.6504 70.7832C80.3314 70.7832 80.0482 70.8451 79.8008 70.9688C79.5599 71.0924 79.3548 71.291 79.1855 71.5645C79.0163 71.8314 78.8861 72.1895 78.7949 72.6387C78.7103 73.0814 78.668 73.6217 78.668 74.2598V77.4727C78.668 77.987 78.694 78.4395 78.7461 78.8301C78.8047 79.2207 78.8893 79.556 79 79.8359C79.1172 80.1094 79.2539 80.334 79.4102 80.5098C79.5729 80.679 79.7585 80.8027 79.9668 80.8809C80.1816 80.959 80.416 80.998 80.6699 80.998C80.9824 80.998 81.2591 80.9362 81.5 80.8125C81.7474 80.6823 81.9557 80.4805 82.125 80.207C82.3008 79.9271 82.431 79.5625 82.5156 79.1133C82.6003 78.6641 82.6426 78.1172 82.6426 77.4727ZM96.9492 74.6406V77.1016C96.9492 78.1693 96.8353 79.0905 96.6074 79.8652C96.3796 80.6335 96.0508 81.265 95.6211 81.7598C95.1979 82.248 94.6934 82.6094 94.1074 82.8438C93.5215 83.0781 92.8704 83.1953 92.1543 83.1953C91.5814 83.1953 91.0475 83.1237 90.5527 82.9805C90.0579 82.8307 89.612 82.5996 89.2148 82.2871C88.8242 81.9746 88.4857 81.5807 88.1992 81.1055C87.9193 80.6237 87.7044 80.0508 87.5547 79.3867C87.4049 78.7227 87.3301 77.9609 87.3301 77.1016V74.6406C87.3301 73.5729 87.444 72.6582 87.6719 71.8965C87.9062 71.1283 88.235 70.5 88.6582 70.0117C89.0879 69.5234 89.5957 69.1654 90.1816 68.9375C90.7676 68.7031 91.4186 68.5859 92.1348 68.5859C92.7077 68.5859 93.2383 68.6608 93.7266 68.8105C94.2214 68.9538 94.6673 69.1784 95.0645 69.4844C95.4616 69.7904 95.8001 70.1842 96.0801 70.666C96.36 71.1413 96.5749 71.7109 96.7246 72.375C96.8743 73.0326 96.9492 73.7878 96.9492 74.6406ZM94.127 77.4727V74.2598C94.127 73.7454 94.0977 73.2962 94.0391 72.9121C93.987 72.528 93.9056 72.2025 93.7949 71.9355C93.6842 71.6621 93.5475 71.4408 93.3848 71.2715C93.222 71.1022 93.0365 70.9785 92.8281 70.9004C92.6198 70.8223 92.3887 70.7832 92.1348 70.7832C91.8158 70.7832 91.5326 70.8451 91.2852 70.9688C91.0443 71.0924 90.8392 71.291 90.6699 71.5645C90.5007 71.8314 90.3704 72.1895 90.2793 72.6387C90.1947 73.0814 90.1523 73.6217 90.1523 74.2598V77.4727C90.1523 77.987 90.1784 78.4395 90.2305 78.8301C90.2891 79.2207 90.3737 79.556 90.4844 79.8359C90.6016 80.1094 90.7383 80.334 90.8945 80.5098C91.0573 80.679 91.2428 80.8027 91.4512 80.8809C91.666 80.959 91.9004 80.998 92.1543 80.998C92.4668 80.998 92.7435 80.9362 92.9844 80.8125C93.2318 80.6823 93.4401 80.4805 93.6094 80.207C93.7852 79.9271 93.9154 79.5625 94 79.1133C94.0846 78.6641 94.127 78.1172 94.127 77.4727ZM108.434 74.6406V77.1016C108.434 78.1693 108.32 79.0905 108.092 79.8652C107.864 80.6335 107.535 81.265 107.105 81.7598C106.682 82.248 106.178 82.6094 105.592 82.8438C105.006 83.0781 104.355 83.1953 103.639 83.1953C103.066 83.1953 102.532 83.1237 102.037 82.9805C101.542 82.8307 101.096 82.5996 100.699 82.2871C100.309 81.9746 99.9701 81.5807 99.6836 81.1055C99.4036 80.6237 99.1888 80.0508 99.0391 79.3867C98.8893 78.7227 98.8145 77.9609 98.8145 77.1016V74.6406C98.8145 73.5729 98.9284 72.6582 99.1562 71.8965C99.3906 71.1283 99.7194 70.5 100.143 70.0117C100.572 69.5234 101.08 69.1654 101.666 68.9375C102.252 68.7031 102.903 68.5859 103.619 68.5859C104.192 68.5859 104.723 68.6608 105.211 68.8105C105.706 68.9538 106.152 69.1784 106.549 69.4844C106.946 69.7904 107.285 70.1842 107.564 70.666C107.844 71.1413 108.059 71.7109 108.209 72.375C108.359 73.0326 108.434 73.7878 108.434 74.6406ZM105.611 77.4727V74.2598C105.611 73.7454 105.582 73.2962 105.523 72.9121C105.471 72.528 105.39 72.2025 105.279 71.9355C105.169 71.6621 105.032 71.4408 104.869 71.2715C104.706 71.1022 104.521 70.9785 104.312 70.9004C104.104 70.8223 103.873 70.7832 103.619 70.7832C103.3 70.7832 103.017 70.8451 102.77 70.9688C102.529 71.0924 102.324 71.291 102.154 71.5645C101.985 71.8314 101.855 72.1895 101.764 72.6387C101.679 73.0814 101.637 73.6217 101.637 74.2598V77.4727C101.637 77.987 101.663 78.4395 101.715 78.8301C101.773 79.2207 101.858 79.556 101.969 79.8359C102.086 80.1094 102.223 80.334 102.379 80.5098C102.542 80.679 102.727 80.8027 102.936 80.8809C103.15 80.959 103.385 80.998 103.639 80.998C103.951 80.998 104.228 80.9362 104.469 80.8125C104.716 80.6823 104.924 80.4805 105.094 80.207C105.27 79.9271 105.4 79.5625 105.484 79.1133C105.569 78.6641 105.611 78.1172 105.611 77.4727ZM119.918 74.6406V77.1016C119.918 78.1693 119.804 79.0905 119.576 79.8652C119.348 80.6335 119.02 81.265 118.59 81.7598C118.167 82.248 117.662 82.6094 117.076 82.8438C116.49 83.0781 115.839 83.1953 115.123 83.1953C114.55 83.1953 114.016 83.1237 113.521 82.9805C113.027 82.8307 112.581 82.5996 112.184 82.2871C111.793 81.9746 111.454 81.5807 111.168 81.1055C110.888 80.6237 110.673 80.0508 110.523 79.3867C110.374 78.7227 110.299 77.9609 110.299 77.1016V74.6406C110.299 73.5729 110.413 72.6582 110.641 71.8965C110.875 71.1283 111.204 70.5 111.627 70.0117C112.057 69.5234 112.564 69.1654 113.15 68.9375C113.736 68.7031 114.387 68.5859 115.104 68.5859C115.676 68.5859 116.207 68.6608 116.695 68.8105C117.19 68.9538 117.636 69.1784 118.033 69.4844C118.43 69.7904 118.769 70.1842 119.049 70.666C119.329 71.1413 119.544 71.7109 119.693 72.375C119.843 73.0326 119.918 73.7878 119.918 74.6406ZM117.096 77.4727V74.2598C117.096 73.7454 117.066 73.2962 117.008 72.9121C116.956 72.528 116.874 72.2025 116.764 71.9355C116.653 71.6621 116.516 71.4408 116.354 71.2715C116.191 71.1022 116.005 70.9785 115.797 70.9004C115.589 70.8223 115.357 70.7832 115.104 70.7832C114.785 70.7832 114.501 70.8451 114.254 70.9688C114.013 71.0924 113.808 71.291 113.639 71.5645C113.469 71.8314 113.339 72.1895 113.248 72.6387C113.163 73.0814 113.121 73.6217 113.121 74.2598V77.4727C113.121 77.987 113.147 78.4395 113.199 78.8301C113.258 79.2207 113.342 79.556 113.453 79.8359C113.57 80.1094 113.707 80.334 113.863 80.5098C114.026 80.679 114.212 80.8027 114.42 80.8809C114.635 80.959 114.869 80.998 115.123 80.998C115.436 80.998 115.712 80.9362 115.953 80.8125C116.201 80.6823 116.409 80.4805 116.578 80.207C116.754 79.9271 116.884 79.5625 116.969 79.1133C117.053 78.6641 117.096 78.1172 117.096 77.4727ZM136.383 74.6406V77.1016C136.383 78.1693 136.269 79.0905 136.041 79.8652C135.813 80.6335 135.484 81.265 135.055 81.7598C134.632 82.248 134.127 82.6094 133.541 82.8438C132.955 83.0781 132.304 83.1953 131.588 83.1953C131.015 83.1953 130.481 83.1237 129.986 82.9805C129.492 82.8307 129.046 82.5996 128.648 82.2871C128.258 81.9746 127.919 81.5807 127.633 81.1055C127.353 80.6237 127.138 80.0508 126.988 79.3867C126.839 78.7227 126.764 77.9609 126.764 77.1016V74.6406C126.764 73.5729 126.878 72.6582 127.105 71.8965C127.34 71.1283 127.669 70.5 128.092 70.0117C128.521 69.5234 129.029 69.1654 129.615 68.9375C130.201 68.7031 130.852 68.5859 131.568 68.5859C132.141 68.5859 132.672 68.6608 133.16 68.8105C133.655 68.9538 134.101 69.1784 134.498 69.4844C134.895 69.7904 135.234 70.1842 135.514 70.666C135.794 71.1413 136.008 71.7109 136.158 72.375C136.308 73.0326 136.383 73.7878 136.383 74.6406ZM133.561 77.4727V74.2598C133.561 73.7454 133.531 73.2962 133.473 72.9121C133.421 72.528 133.339 72.2025 133.229 71.9355C133.118 71.6621 132.981 71.4408 132.818 71.2715C132.656 71.1022 132.47 70.9785 132.262 70.9004C132.053 70.8223 131.822 70.7832 131.568 70.7832C131.249 70.7832 130.966 70.8451 130.719 70.9688C130.478 71.0924 130.273 71.291 130.104 71.5645C129.934 71.8314 129.804 72.1895 129.713 72.6387C129.628 73.0814 129.586 73.6217 129.586 74.2598V77.4727C129.586 77.987 129.612 78.4395 129.664 78.8301C129.723 79.2207 129.807 79.556 129.918 79.8359C130.035 80.1094 130.172 80.334 130.328 80.5098C130.491 80.679 130.676 80.8027 130.885 80.8809C131.1 80.959 131.334 80.998 131.588 80.998C131.9 80.998 132.177 80.9362 132.418 80.8125C132.665 80.6823 132.874 80.4805 133.043 80.207C133.219 79.9271 133.349 79.5625 133.434 79.1133C133.518 78.6641 133.561 78.1172 133.561 77.4727ZM147.867 74.6406V77.1016C147.867 78.1693 147.753 79.0905 147.525 79.8652C147.298 80.6335 146.969 81.265 146.539 81.7598C146.116 82.248 145.611 82.6094 145.025 82.8438C144.439 83.0781 143.788 83.1953 143.072 83.1953C142.499 83.1953 141.965 83.1237 141.471 82.9805C140.976 82.8307 140.53 82.5996 140.133 82.2871C139.742 81.9746 139.404 81.5807 139.117 81.1055C138.837 80.6237 138.622 80.0508 138.473 79.3867C138.323 78.7227 138.248 77.9609 138.248 77.1016V74.6406C138.248 73.5729 138.362 72.6582 138.59 71.8965C138.824 71.1283 139.153 70.5 139.576 70.0117C140.006 69.5234 140.514 69.1654 141.1 68.9375C141.686 68.7031 142.337 68.5859 143.053 68.5859C143.626 68.5859 144.156 68.6608 144.645 68.8105C145.139 68.9538 145.585 69.1784 145.982 69.4844C146.38 69.7904 146.718 70.1842 146.998 70.666C147.278 71.1413 147.493 71.7109 147.643 72.375C147.792 73.0326 147.867 73.7878 147.867 74.6406ZM145.045 77.4727V74.2598C145.045 73.7454 145.016 73.2962 144.957 72.9121C144.905 72.528 144.824 72.2025 144.713 71.9355C144.602 71.6621 144.465 71.4408 144.303 71.2715C144.14 71.1022 143.954 70.9785 143.746 70.9004C143.538 70.8223 143.307 70.7832 143.053 70.7832C142.734 70.7832 142.451 70.8451 142.203 70.9688C141.962 71.0924 141.757 71.291 141.588 71.5645C141.419 71.8314 141.288 72.1895 141.197 72.6387C141.113 73.0814 141.07 73.6217 141.07 74.2598V77.4727C141.07 77.987 141.096 78.4395 141.148 78.8301C141.207 79.2207 141.292 79.556 141.402 79.8359C141.52 80.1094 141.656 80.334 141.812 80.5098C141.975 80.679 142.161 80.8027 142.369 80.8809C142.584 80.959 142.818 80.998 143.072 80.998C143.385 80.998 143.661 80.9362 143.902 80.8125C144.15 80.6823 144.358 80.4805 144.527 80.207C144.703 79.9271 144.833 79.5625 144.918 79.1133C145.003 78.6641 145.045 78.1172 145.045 77.4727ZM159.352 74.6406V77.1016C159.352 78.1693 159.238 79.0905 159.01 79.8652C158.782 80.6335 158.453 81.265 158.023 81.7598C157.6 82.248 157.096 82.6094 156.51 82.8438C155.924 83.0781 155.273 83.1953 154.557 83.1953C153.984 83.1953 153.45 83.1237 152.955 82.9805C152.46 82.8307 152.014 82.5996 151.617 82.2871C151.227 81.9746 150.888 81.5807 150.602 81.1055C150.322 80.6237 150.107 80.0508 149.957 79.3867C149.807 78.7227 149.732 77.9609 149.732 77.1016V74.6406C149.732 73.5729 149.846 72.6582 150.074 71.8965C150.309 71.1283 150.637 70.5 151.061 70.0117C151.49 69.5234 151.998 69.1654 152.584 68.9375C153.17 68.7031 153.821 68.5859 154.537 68.5859C155.11 68.5859 155.641 68.6608 156.129 68.8105C156.624 68.9538 157.07 69.1784 157.467 69.4844C157.864 69.7904 158.202 70.1842 158.482 70.666C158.762 71.1413 158.977 71.7109 159.127 72.375C159.277 73.0326 159.352 73.7878 159.352 74.6406ZM156.529 77.4727V74.2598C156.529 73.7454 156.5 73.2962 156.441 72.9121C156.389 72.528 156.308 72.2025 156.197 71.9355C156.087 71.6621 155.95 71.4408 155.787 71.2715C155.624 71.1022 155.439 70.9785 155.23 70.9004C155.022 70.8223 154.791 70.7832 154.537 70.7832C154.218 70.7832 153.935 70.8451 153.688 70.9688C153.447 71.0924 153.242 71.291 153.072 71.5645C152.903 71.8314 152.773 72.1895 152.682 72.6387C152.597 73.0814 152.555 73.6217 152.555 74.2598V77.4727C152.555 77.987 152.581 78.4395 152.633 78.8301C152.691 79.2207 152.776 79.556 152.887 79.8359C153.004 80.1094 153.141 80.334 153.297 80.5098C153.46 80.679 153.645 80.8027 153.854 80.8809C154.068 80.959 154.303 80.998 154.557 80.998C154.869 80.998 155.146 80.9362 155.387 80.8125C155.634 80.6823 155.842 80.4805 156.012 80.207C156.188 79.9271 156.318 79.5625 156.402 79.1133C156.487 78.6641 156.529 78.1172 156.529 77.4727ZM170.836 74.6406V77.1016C170.836 78.1693 170.722 79.0905 170.494 79.8652C170.266 80.6335 169.938 81.265 169.508 81.7598C169.085 82.248 168.58 82.6094 167.994 82.8438C167.408 83.0781 166.757 83.1953 166.041 83.1953C165.468 83.1953 164.934 83.1237 164.439 82.9805C163.945 82.8307 163.499 82.5996 163.102 82.2871C162.711 81.9746 162.372 81.5807 162.086 81.1055C161.806 80.6237 161.591 80.0508 161.441 79.3867C161.292 78.7227 161.217 77.9609 161.217 77.1016V74.6406C161.217 73.5729 161.331 72.6582 161.559 71.8965C161.793 71.1283 162.122 70.5 162.545 70.0117C162.975 69.5234 163.482 69.1654 164.068 68.9375C164.654 68.7031 165.305 68.5859 166.021 68.5859C166.594 68.5859 167.125 68.6608 167.613 68.8105C168.108 68.9538 168.554 69.1784 168.951 69.4844C169.348 69.7904 169.687 70.1842 169.967 70.666C170.247 71.1413 170.462 71.7109 170.611 72.375C170.761 73.0326 170.836 73.7878 170.836 74.6406ZM168.014 77.4727V74.2598C168.014 73.7454 167.984 73.2962 167.926 72.9121C167.874 72.528 167.792 72.2025 167.682 71.9355C167.571 71.6621 167.434 71.4408 167.271 71.2715C167.109 71.1022 166.923 70.9785 166.715 70.9004C166.507 70.8223 166.275 70.7832 166.021 70.7832C165.702 70.7832 165.419 70.8451 165.172 70.9688C164.931 71.0924 164.726 71.291 164.557 71.5645C164.387 71.8314 164.257 72.1895 164.166 72.6387C164.081 73.0814 164.039 73.6217 164.039 74.2598V77.4727C164.039 77.987 164.065 78.4395 164.117 78.8301C164.176 79.2207 164.26 79.556 164.371 79.8359C164.488 80.1094 164.625 80.334 164.781 80.5098C164.944 80.679 165.13 80.8027 165.338 80.8809C165.553 80.959 165.787 80.998 166.041 80.998C166.354 80.998 166.63 80.9362 166.871 80.8125C167.118 80.6823 167.327 80.4805 167.496 80.207C167.672 79.9271 167.802 79.5625 167.887 79.1133C167.971 78.6641 168.014 78.1172 168.014 77.4727ZM187.301 74.6406V77.1016C187.301 78.1693 187.187 79.0905 186.959 79.8652C186.731 80.6335 186.402 81.265 185.973 81.7598C185.549 82.248 185.045 82.6094 184.459 82.8438C183.873 83.0781 183.222 83.1953 182.506 83.1953C181.933 83.1953 181.399 83.1237 180.904 82.9805C180.41 82.8307 179.964 82.5996 179.566 82.2871C179.176 81.9746 178.837 81.5807 178.551 81.1055C178.271 80.6237 178.056 80.0508 177.906 79.3867C177.757 78.7227 177.682 77.9609 177.682 77.1016V74.6406C177.682 73.5729 177.796 72.6582 178.023 71.8965C178.258 71.1283 178.587 70.5 179.01 70.0117C179.439 69.5234 179.947 69.1654 180.533 68.9375C181.119 68.7031 181.77 68.5859 182.486 68.5859C183.059 68.5859 183.59 68.6608 184.078 68.8105C184.573 68.9538 185.019 69.1784 185.416 69.4844C185.813 69.7904 186.152 70.1842 186.432 70.666C186.712 71.1413 186.926 71.7109 187.076 72.375C187.226 73.0326 187.301 73.7878 187.301 74.6406ZM184.479 77.4727V74.2598C184.479 73.7454 184.449 73.2962 184.391 72.9121C184.339 72.528 184.257 72.2025 184.146 71.9355C184.036 71.6621 183.899 71.4408 183.736 71.2715C183.574 71.1022 183.388 70.9785 183.18 70.9004C182.971 70.8223 182.74 70.7832 182.486 70.7832C182.167 70.7832 181.884 70.8451 181.637 70.9688C181.396 71.0924 181.191 71.291 181.021 71.5645C180.852 71.8314 180.722 72.1895 180.631 72.6387C180.546 73.0814 180.504 73.6217 180.504 74.2598V77.4727C180.504 77.987 180.53 78.4395 180.582 78.8301C180.641 79.2207 180.725 79.556 180.836 79.8359C180.953 80.1094 181.09 80.334 181.246 80.5098C181.409 80.679 181.594 80.8027 181.803 80.8809C182.018 80.959 182.252 80.998 182.506 80.998C182.818 80.998 183.095 80.9362 183.336 80.8125C183.583 80.6823 183.792 80.4805 183.961 80.207C184.137 79.9271 184.267 79.5625 184.352 79.1133C184.436 78.6641 184.479 78.1172 184.479 77.4727ZM198.785 74.6406V77.1016C198.785 78.1693 198.671 79.0905 198.443 79.8652C198.215 80.6335 197.887 81.265 197.457 81.7598C197.034 82.248 196.529 82.6094 195.943 82.8438C195.357 83.0781 194.706 83.1953 193.99 83.1953C193.417 83.1953 192.883 83.1237 192.389 82.9805C191.894 82.8307 191.448 82.5996 191.051 82.2871C190.66 81.9746 190.322 81.5807 190.035 81.1055C189.755 80.6237 189.54 80.0508 189.391 79.3867C189.241 78.7227 189.166 77.9609 189.166 77.1016V74.6406C189.166 73.5729 189.28 72.6582 189.508 71.8965C189.742 71.1283 190.071 70.5 190.494 70.0117C190.924 69.5234 191.432 69.1654 192.018 68.9375C192.604 68.7031 193.255 68.5859 193.971 68.5859C194.544 68.5859 195.074 68.6608 195.562 68.8105C196.057 68.9538 196.503 69.1784 196.9 69.4844C197.298 69.7904 197.636 70.1842 197.916 70.666C198.196 71.1413 198.411 71.7109 198.561 72.375C198.71 73.0326 198.785 73.7878 198.785 74.6406ZM195.963 77.4727V74.2598C195.963 73.7454 195.934 73.2962 195.875 72.9121C195.823 72.528 195.742 72.2025 195.631 71.9355C195.52 71.6621 195.383 71.4408 195.221 71.2715C195.058 71.1022 194.872 70.9785 194.664 70.9004C194.456 70.8223 194.225 70.7832 193.971 70.7832C193.652 70.7832 193.368 70.8451 193.121 70.9688C192.88 71.0924 192.675 71.291 192.506 71.5645C192.337 71.8314 192.206 72.1895 192.115 72.6387C192.031 73.0814 191.988 73.6217 191.988 74.2598V77.4727C191.988 77.987 192.014 78.4395 192.066 78.8301C192.125 79.2207 192.21 79.556 192.32 79.8359C192.438 80.1094 192.574 80.334 192.73 80.5098C192.893 80.679 193.079 80.8027 193.287 80.8809C193.502 80.959 193.736 80.998 193.99 80.998C194.303 80.998 194.579 80.9362 194.82 80.8125C195.068 80.6823 195.276 80.4805 195.445 80.207C195.621 79.9271 195.751 79.5625 195.836 79.1133C195.921 78.6641 195.963 78.1172 195.963 77.4727ZM210.27 74.6406V77.1016C210.27 78.1693 210.156 79.0905 209.928 79.8652C209.7 80.6335 209.371 81.265 208.941 81.7598C208.518 82.248 208.014 82.6094 207.428 82.8438C206.842 83.0781 206.191 83.1953 205.475 83.1953C204.902 83.1953 204.368 83.1237 203.873 82.9805C203.378 82.8307 202.932 82.5996 202.535 82.2871C202.145 81.9746 201.806 81.5807 201.52 81.1055C201.24 80.6237 201.025 80.0508 200.875 79.3867C200.725 78.7227 200.65 77.9609 200.65 77.1016V74.6406C200.65 73.5729 200.764 72.6582 200.992 71.8965C201.227 71.1283 201.555 70.5 201.979 70.0117C202.408 69.5234 202.916 69.1654 203.502 68.9375C204.088 68.7031 204.739 68.5859 205.455 68.5859C206.028 68.5859 206.559 68.6608 207.047 68.8105C207.542 68.9538 207.988 69.1784 208.385 69.4844C208.782 69.7904 209.12 70.1842 209.4 70.666C209.68 71.1413 209.895 71.7109 210.045 72.375C210.195 73.0326 210.27 73.7878 210.27 74.6406ZM207.447 77.4727V74.2598C207.447 73.7454 207.418 73.2962 207.359 72.9121C207.307 72.528 207.226 72.2025 207.115 71.9355C207.005 71.6621 206.868 71.4408 206.705 71.2715C206.542 71.1022 206.357 70.9785 206.148 70.9004C205.94 70.8223 205.709 70.7832 205.455 70.7832C205.136 70.7832 204.853 70.8451 204.605 70.9688C204.365 71.0924 204.16 71.291 203.99 71.5645C203.821 71.8314 203.691 72.1895 203.6 72.6387C203.515 73.0814 203.473 73.6217 203.473 74.2598V77.4727C203.473 77.987 203.499 78.4395 203.551 78.8301C203.609 79.2207 203.694 79.556 203.805 79.8359C203.922 80.1094 204.059 80.334 204.215 80.5098C204.378 80.679 204.563 80.8027 204.771 80.8809C204.986 80.959 205.221 80.998 205.475 80.998C205.787 80.998 206.064 80.9362 206.305 80.8125C206.552 80.6823 206.76 80.4805 206.93 80.207C207.105 79.9271 207.236 79.5625 207.32 79.1133C207.405 78.6641 207.447 78.1172 207.447 77.4727ZM221.754 74.6406V77.1016C221.754 78.1693 221.64 79.0905 221.412 79.8652C221.184 80.6335 220.855 81.265 220.426 81.7598C220.003 82.248 219.498 82.6094 218.912 82.8438C218.326 83.0781 217.675 83.1953 216.959 83.1953C216.386 83.1953 215.852 83.1237 215.357 82.9805C214.863 82.8307 214.417 82.5996 214.02 82.2871C213.629 81.9746 213.29 81.5807 213.004 81.1055C212.724 80.6237 212.509 80.0508 212.359 79.3867C212.21 78.7227 212.135 77.9609 212.135 77.1016V74.6406C212.135 73.5729 212.249 72.6582 212.477 71.8965C212.711 71.1283 213.04 70.5 213.463 70.0117C213.893 69.5234 214.4 69.1654 214.986 68.9375C215.572 68.7031 216.223 68.5859 216.939 68.5859C217.512 68.5859 218.043 68.6608 218.531 68.8105C219.026 68.9538 219.472 69.1784 219.869 69.4844C220.266 69.7904 220.605 70.1842 220.885 70.666C221.165 71.1413 221.38 71.7109 221.529 72.375C221.679 73.0326 221.754 73.7878 221.754 74.6406ZM218.932 77.4727V74.2598C218.932 73.7454 218.902 73.2962 218.844 72.9121C218.792 72.528 218.71 72.2025 218.6 71.9355C218.489 71.6621 218.352 71.4408 218.189 71.2715C218.027 71.1022 217.841 70.9785 217.633 70.9004C217.424 70.8223 217.193 70.7832 216.939 70.7832C216.62 70.7832 216.337 70.8451 216.09 70.9688C215.849 71.0924 215.644 71.291 215.475 71.5645C215.305 71.8314 215.175 72.1895 215.084 72.6387C214.999 73.0814 214.957 73.6217 214.957 74.2598V77.4727C214.957 77.987 214.983 78.4395 215.035 78.8301C215.094 79.2207 215.178 79.556 215.289 79.8359C215.406 80.1094 215.543 80.334 215.699 80.5098C215.862 80.679 216.048 80.8027 216.256 80.8809C216.471 80.959 216.705 80.998 216.959 80.998C217.271 80.998 217.548 80.9362 217.789 80.8125C218.036 80.6823 218.245 80.4805 218.414 80.207C218.59 79.9271 218.72 79.5625 218.805 79.1133C218.889 78.6641 218.932 78.1172 218.932 77.4727Z" fill="#485363"/>
<path d="M31.1641 129.835H32.4766C32.4082 130.464 32.2282 131.027 31.9365 131.523C31.6449 132.02 31.2324 132.414 30.6992 132.706C30.166 132.993 29.5007 133.137 28.7031 133.137C28.1198 133.137 27.5889 133.027 27.1104 132.809C26.6364 132.59 26.2285 132.28 25.8867 131.879C25.5449 131.473 25.2806 130.988 25.0938 130.423C24.9115 129.853 24.8203 129.22 24.8203 128.522V127.531C24.8203 126.834 24.9115 126.203 25.0938 125.638C25.2806 125.068 25.5472 124.58 25.8936 124.175C26.2445 123.769 26.666 123.457 27.1582 123.238C27.6504 123.02 28.2041 122.91 28.8193 122.91C29.5713 122.91 30.207 123.051 30.7266 123.334C31.2461 123.617 31.6494 124.008 31.9365 124.51C32.2282 125.007 32.4082 125.583 32.4766 126.239H31.1641C31.1003 125.774 30.9818 125.376 30.8086 125.043C30.6354 124.706 30.3893 124.446 30.0703 124.264C29.7513 124.081 29.3343 123.99 28.8193 123.99C28.3773 123.99 27.9876 124.075 27.6504 124.243C27.3177 124.412 27.0374 124.651 26.8096 124.961C26.5863 125.271 26.4176 125.642 26.3037 126.075C26.1898 126.508 26.1328 126.989 26.1328 127.518V128.522C26.1328 129.01 26.1829 129.468 26.2832 129.896C26.388 130.325 26.5452 130.701 26.7549 131.024C26.9645 131.348 27.2311 131.603 27.5547 131.79C27.8783 131.972 28.2611 132.063 28.7031 132.063C29.2637 132.063 29.7103 131.975 30.043 131.797C30.3757 131.619 30.6263 131.364 30.7949 131.031C30.9681 130.699 31.0911 130.3 31.1641 129.835ZM38.4443 131.735V127.928C38.4443 127.636 38.3851 127.383 38.2666 127.169C38.1527 126.95 37.9795 126.782 37.7471 126.663C37.5146 126.545 37.2275 126.485 36.8857 126.485C36.5667 126.485 36.2865 126.54 36.0449 126.649C35.8079 126.759 35.6211 126.902 35.4844 127.08C35.3522 127.258 35.2861 127.449 35.2861 127.654H34.0215C34.0215 127.39 34.0898 127.128 34.2266 126.868C34.3633 126.608 34.5592 126.374 34.8145 126.164C35.0742 125.95 35.3841 125.781 35.7441 125.658C36.1087 125.531 36.5143 125.467 36.9609 125.467C37.4987 125.467 37.9727 125.558 38.3828 125.74C38.7975 125.923 39.1211 126.198 39.3535 126.567C39.5905 126.932 39.709 127.39 39.709 127.941V131.387C39.709 131.633 39.7295 131.895 39.7705 132.173C39.8161 132.451 39.8822 132.69 39.9688 132.891V133H38.6494C38.5856 132.854 38.5355 132.66 38.499 132.419C38.4626 132.173 38.4443 131.945 38.4443 131.735ZM38.6631 128.516L38.6768 129.404H37.3984C37.0384 129.404 36.7171 129.434 36.4346 129.493C36.152 129.548 35.915 129.632 35.7236 129.746C35.5322 129.86 35.3864 130.004 35.2861 130.177C35.1859 130.345 35.1357 130.544 35.1357 130.771C35.1357 131.004 35.1882 131.216 35.293 131.407C35.3978 131.599 35.555 131.751 35.7646 131.865C35.9788 131.975 36.2409 132.029 36.5508 132.029C36.9382 132.029 37.2799 131.947 37.5762 131.783C37.8724 131.619 38.1071 131.419 38.2803 131.182C38.458 130.945 38.5537 130.715 38.5674 130.491L39.1074 131.1C39.0755 131.291 38.9889 131.503 38.8477 131.735C38.7064 131.968 38.5173 132.191 38.2803 132.405C38.0479 132.615 37.7699 132.79 37.4463 132.932C37.1273 133.068 36.7673 133.137 36.3662 133.137C35.8649 133.137 35.4251 133.039 35.0469 132.843C34.6732 132.647 34.3815 132.385 34.1719 132.057C33.9668 131.724 33.8643 131.353 33.8643 130.942C33.8643 130.546 33.9417 130.197 34.0967 129.896C34.2516 129.591 34.4749 129.338 34.7666 129.138C35.0583 128.933 35.4092 128.778 35.8193 128.673C36.2295 128.568 36.6875 128.516 37.1934 128.516H38.6631ZM42.9629 126.766V133H41.6982V125.604H42.9287L42.9629 126.766ZM45.2734 125.562L45.2666 126.738C45.1618 126.715 45.0615 126.702 44.9658 126.697C44.8747 126.688 44.7699 126.684 44.6514 126.684C44.3597 126.684 44.1022 126.729 43.8789 126.82C43.6556 126.911 43.4665 127.039 43.3115 127.203C43.1566 127.367 43.0335 127.563 42.9424 127.791C42.8558 128.014 42.7988 128.26 42.7715 128.529L42.416 128.734C42.416 128.288 42.4593 127.868 42.5459 127.477C42.637 127.085 42.776 126.738 42.9629 126.438C43.1497 126.132 43.3867 125.895 43.6738 125.727C43.9655 125.553 44.3118 125.467 44.7129 125.467C44.804 125.467 44.9089 125.478 45.0273 125.501C45.1458 125.519 45.2279 125.54 45.2734 125.562ZM50.9678 131.564V122.5H52.2393V133H51.0771L50.9678 131.564ZM45.9912 129.384V129.24C45.9912 128.675 46.0596 128.162 46.1963 127.702C46.3376 127.237 46.5358 126.839 46.791 126.506C47.0508 126.173 47.3584 125.918 47.7139 125.74C48.0739 125.558 48.4749 125.467 48.917 125.467C49.3818 125.467 49.7874 125.549 50.1338 125.713C50.4847 125.872 50.7809 126.107 51.0225 126.417C51.2686 126.722 51.4622 127.091 51.6035 127.524C51.7448 127.957 51.8428 128.447 51.8975 128.994V129.623C51.8473 130.165 51.7493 130.653 51.6035 131.086C51.4622 131.519 51.2686 131.888 51.0225 132.193C50.7809 132.499 50.4847 132.733 50.1338 132.897C49.7829 133.057 49.3727 133.137 48.9033 133.137C48.4704 133.137 48.0739 133.043 47.7139 132.856C47.3584 132.67 47.0508 132.408 46.791 132.07C46.5358 131.733 46.3376 131.337 46.1963 130.881C46.0596 130.421 45.9912 129.922 45.9912 129.384ZM47.2627 129.24V129.384C47.2627 129.753 47.2992 130.099 47.3721 130.423C47.4495 130.746 47.568 131.031 47.7275 131.277C47.887 131.523 48.0898 131.717 48.3359 131.858C48.582 131.995 48.876 132.063 49.2178 132.063C49.637 132.063 49.9811 131.975 50.25 131.797C50.5234 131.619 50.7422 131.384 50.9062 131.093C51.0703 130.801 51.1979 130.484 51.2891 130.143V128.495C51.2344 128.244 51.1546 128.003 51.0498 127.771C50.9495 127.534 50.8174 127.324 50.6533 127.142C50.4938 126.955 50.2956 126.807 50.0586 126.697C49.8262 126.588 49.5505 126.533 49.2314 126.533C48.8851 126.533 48.5866 126.606 48.3359 126.752C48.0898 126.893 47.887 127.089 47.7275 127.34C47.568 127.586 47.4495 127.873 47.3721 128.201C47.2992 128.525 47.2627 128.871 47.2627 129.24ZM64.373 127.326V128.399H58.9863V127.326H64.373ZM59.1914 123.047V133H57.8721V123.047H59.1914ZM65.5215 123.047V133H64.209V123.047H65.5215ZM67.3398 129.384V129.227C67.3398 128.693 67.4173 128.199 67.5723 127.743C67.7272 127.283 67.9505 126.884 68.2422 126.547C68.5339 126.205 68.887 125.941 69.3018 125.754C69.7165 125.562 70.1813 125.467 70.6963 125.467C71.2158 125.467 71.6829 125.562 72.0977 125.754C72.5169 125.941 72.8724 126.205 73.1641 126.547C73.4603 126.884 73.6859 127.283 73.8408 127.743C73.9958 128.199 74.0732 128.693 74.0732 129.227V129.384C74.0732 129.917 73.9958 130.411 73.8408 130.867C73.6859 131.323 73.4603 131.722 73.1641 132.063C72.8724 132.401 72.5192 132.665 72.1045 132.856C71.6943 133.043 71.2295 133.137 70.71 133.137C70.1904 133.137 69.7233 133.043 69.3086 132.856C68.8939 132.665 68.5384 132.401 68.2422 132.063C67.9505 131.722 67.7272 131.323 67.5723 130.867C67.4173 130.411 67.3398 129.917 67.3398 129.384ZM68.6045 129.227V129.384C68.6045 129.753 68.6478 130.102 68.7344 130.43C68.821 130.753 68.9508 131.04 69.124 131.291C69.3018 131.542 69.5228 131.74 69.7871 131.886C70.0514 132.027 70.359 132.098 70.71 132.098C71.0563 132.098 71.3594 132.027 71.6191 131.886C71.8835 131.74 72.1022 131.542 72.2754 131.291C72.4486 131.04 72.5785 130.753 72.665 130.43C72.7562 130.102 72.8018 129.753 72.8018 129.384V129.227C72.8018 128.862 72.7562 128.518 72.665 128.194C72.5785 127.866 72.4463 127.577 72.2686 127.326C72.0954 127.071 71.8766 126.87 71.6123 126.725C71.3525 126.579 71.0472 126.506 70.6963 126.506C70.3499 126.506 70.0446 126.579 69.7803 126.725C69.5205 126.87 69.3018 127.071 69.124 127.326C68.9508 127.577 68.821 127.866 68.7344 128.194C68.6478 128.518 68.6045 128.862 68.6045 129.227ZM77.0332 122.5V133H75.7617V122.5H77.0332ZM83.7256 131.564V122.5H84.9971V133H83.835L83.7256 131.564ZM78.749 129.384V129.24C78.749 128.675 78.8174 128.162 78.9541 127.702C79.0954 127.237 79.2936 126.839 79.5488 126.506C79.8086 126.173 80.1162 125.918 80.4717 125.74C80.8317 125.558 81.2327 125.467 81.6748 125.467C82.1396 125.467 82.5452 125.549 82.8916 125.713C83.2425 125.872 83.5387 126.107 83.7803 126.417C84.0264 126.722 84.2201 127.091 84.3613 127.524C84.5026 127.957 84.6006 128.447 84.6553 128.994V129.623C84.6051 130.165 84.5072 130.653 84.3613 131.086C84.2201 131.519 84.0264 131.888 83.7803 132.193C83.5387 132.499 83.2425 132.733 82.8916 132.897C82.5407 133.057 82.1305 133.137 81.6611 133.137C81.2282 133.137 80.8317 133.043 80.4717 132.856C80.1162 132.67 79.8086 132.408 79.5488 132.07C79.2936 131.733 79.0954 131.337 78.9541 130.881C78.8174 130.421 78.749 129.922 78.749 129.384ZM80.0205 129.24V129.384C80.0205 129.753 80.057 130.099 80.1299 130.423C80.2074 130.746 80.3258 131.031 80.4854 131.277C80.6449 131.523 80.8477 131.717 81.0938 131.858C81.3398 131.995 81.6338 132.063 81.9756 132.063C82.3949 132.063 82.7389 131.975 83.0078 131.797C83.2812 131.619 83.5 131.384 83.6641 131.093C83.8281 130.801 83.9557 130.484 84.0469 130.143V128.495C83.9922 128.244 83.9124 128.003 83.8076 127.771C83.7074 127.534 83.5752 127.324 83.4111 127.142C83.2516 126.955 83.0534 126.807 82.8164 126.697C82.584 126.588 82.3083 126.533 81.9893 126.533C81.6429 126.533 81.3444 126.606 81.0938 126.752C80.8477 126.893 80.6449 127.089 80.4854 127.34C80.3258 127.586 80.2074 127.873 80.1299 128.201C80.057 128.525 80.0205 128.871 80.0205 129.24ZM90.0352 133.137C89.5202 133.137 89.0531 133.05 88.6338 132.877C88.2191 132.699 87.8613 132.451 87.5605 132.132C87.2643 131.813 87.0365 131.435 86.877 130.997C86.7174 130.56 86.6377 130.081 86.6377 129.562V129.274C86.6377 128.673 86.7266 128.137 86.9043 127.668C87.082 127.194 87.3236 126.793 87.6289 126.465C87.9342 126.137 88.2806 125.888 88.668 125.72C89.0553 125.551 89.4564 125.467 89.8711 125.467C90.3997 125.467 90.8555 125.558 91.2383 125.74C91.6257 125.923 91.9424 126.178 92.1885 126.506C92.4346 126.829 92.6169 127.212 92.7354 127.654C92.8538 128.092 92.9131 128.57 92.9131 129.09V129.657H87.3896V128.625H91.6484V128.529C91.6302 128.201 91.5618 127.882 91.4434 127.572C91.3294 127.262 91.1471 127.007 90.8965 126.807C90.6458 126.606 90.304 126.506 89.8711 126.506C89.584 126.506 89.3197 126.567 89.0781 126.69C88.8366 126.809 88.6292 126.987 88.4561 127.224C88.2829 127.461 88.1484 127.75 88.0527 128.092C87.957 128.434 87.9092 128.828 87.9092 129.274V129.562C87.9092 129.912 87.957 130.243 88.0527 130.553C88.153 130.858 88.2965 131.127 88.4834 131.359C88.6748 131.592 88.9049 131.774 89.1738 131.906C89.4473 132.038 89.7572 132.104 90.1035 132.104C90.5501 132.104 90.9284 132.013 91.2383 131.831C91.5482 131.649 91.8193 131.405 92.0518 131.1L92.8174 131.708C92.6579 131.95 92.4551 132.18 92.209 132.398C91.9629 132.617 91.6598 132.795 91.2998 132.932C90.9443 133.068 90.5228 133.137 90.0352 133.137ZM95.6543 126.766V133H94.3896V125.604H95.6201L95.6543 126.766ZM97.9648 125.562L97.958 126.738C97.8532 126.715 97.7529 126.702 97.6572 126.697C97.5661 126.688 97.4613 126.684 97.3428 126.684C97.0511 126.684 96.7936 126.729 96.5703 126.82C96.347 126.911 96.1579 127.039 96.0029 127.203C95.848 127.367 95.7249 127.563 95.6338 127.791C95.5472 128.014 95.4902 128.26 95.4629 128.529L95.1074 128.734C95.1074 128.288 95.1507 127.868 95.2373 127.477C95.3285 127.085 95.4674 126.738 95.6543 126.438C95.8411 126.132 96.0781 125.895 96.3652 125.727C96.6569 125.553 97.0033 125.467 97.4043 125.467C97.4954 125.467 97.6003 125.478 97.7188 125.501C97.8372 125.519 97.9193 125.54 97.9648 125.562Z" fill="#8493A8"/>
<path d="M25.9531 145.625H27.7031L30.9922 154.398L34.2734 145.625H36.0234L31.6797 157H30.2891L25.9531 145.625ZM25.1562 145.625H26.8203L27.1094 153.219V157H25.1562V145.625ZM35.1562 145.625H36.8281V157H34.8672V153.219L35.1562 145.625ZM39.9531 145.625H41.7031L44.9922 154.398L48.2734 145.625H50.0234L45.6797 157H44.2891L39.9531 145.625ZM39.1562 145.625H40.8203L41.1094 153.219V157H39.1562V145.625ZM49.1562 145.625H50.8281V157H48.8672V153.219L49.1562 145.625ZM61.8984 145.625L57.4688 157.977H55.9922L60.4297 145.625H61.8984ZM68.4609 145.625L71.1016 151.055L73.7422 145.625H75.9141L72.0859 152.812V157H70.1094V152.812L66.2812 145.625H68.4609ZM78.3828 145.625L81.0234 151.055L83.6641 145.625H85.8359L82.0078 152.812V157H80.0312V152.812L76.2031 145.625H78.3828Z" fill="#485363"/>
<defs>
<clipPath id="clip0_1_1779">
<rect x="226" y="24" width="32" height="24" rx="2" fill="white"/>
</clipPath>
</defs>
</svg>
